<?xml version="1.0" encoding="UTF-8"?><svg xmlns="http://www.w3.org/2000/svg" width="64px" height="64px" fill="none" stroke-width="2" viewBox="0 0 24 24" color="#000000"><path stroke="#000000" stroke-width="2" stroke-linecap="round" stroke-linejoin="round" d="M20 12v9.4a.6.6 0 0 1-.6.6H4.6a.6.6 0 0 1-.6-.6V12M21.4 7H2.6a.6.6 0 0 0-.6.6v3.8a.6.6 0 0 0 .6.6h18.8a.6.6 0 0 0 .6-.6V7.6a.6.6 0 0 0-.6-.6ZM12 22V7M12 7H7.5a2.5 2.5 0 1 1 0-5C11 2 12 7 12 7ZM12 7h4.5a2.5 2.5 0 0 0 0-5C13 2 12 7 12 7Z"></path></svg>