<?xml version="1.0" encoding="utf-8"?>
<svg viewBox="0 0 1000 1000" xmlns="http://www.w3.org/2000/svg">
  <g transform="matrix(39.930599212646484, 0, 0, 39.930599212646484, 500.0006103515625, 500.00061035156256)" id="358618">
    <g style="" vector-effect="non-scaling-stroke">
      <g transform="matrix(1 0 0 1 5.2108 0)" id="SVGRepo_iconCarrier">
        <path style="stroke-width: 0.168; stroke-dasharray: none; stroke-linecap: butt; stroke-dashoffset: 0; stroke-linejoin: miter; stroke-miterlimit: 4; fill-rule: nonzero; opacity: 1; fill: rgb(255, 255, 255); stroke: rgb(255, 255, 255);" transform=" translate(-17.2108, -12)" d="M 13.4822 17.7322 L 12.7071 16.9571 L 15.1893 14.4749 C 16.5562 13.108 16.5562 10.8919 15.1893 9.52511 L 12.7071 7.04288 L 13.4822 6.26776 C 14.4585 5.29144 16.0414 5.29144 17.0178 6.26776 L 20.9822 10.2322 C 21.9585 11.2085 21.9585 12.7914 20.9822 13.7678 L 17.0178 17.7322 C 16.0414 18.7085 14.4585 18.7085 13.4822 17.7322 Z" stroke-linecap="round"/>
      </g>
      <g transform="matrix(1 0 0 1 -3.25 0)" id="SVGRepo_iconCarrier">
        <path style="stroke-width: 0.168; stroke-dasharray: none; stroke-linecap: butt; stroke-dashoffset: 0; stroke-linejoin: miter; stroke-miterlimit: 4; fill-rule: nonzero; opacity: 1; fill: rgb(255, 255, 255); stroke: rgb(255, 255, 255);" transform=" translate(-8.75, -12)" d="M 14.4822 13.7678 C 15.4585 12.7914 15.4585 11.2085 14.4822 10.2322 L 10.5178 6.26776 C 9.54144 5.29144 7.95853 5.29145 6.98222 6.26776 L 3.01776 10.2322 C 2.04144 11.2085 2.04145 12.7914 3.01776 13.7678 L 6.98222 17.7322 C 7.95853 18.7085 9.54144 18.7085 10.5178 17.7322 L 14.4822 13.7678 Z" stroke-linecap="round"/>
      </g>
    </g>
  </g>
</svg>